<svg width="200" height="200" viewBox="0 0 200 200" fill="none" xmlns="http://www.w3.org/2000/svg">
<path d="M155.832 177.155C156.505 178.862 154.718 180.499 153.077 179.679L139.838 173.059C138.793 172.537 137.526 173.016 137.089 174.099L131.373 188.248C130.685 189.949 128.262 189.905 127.637 188.18L105.901 128.126C106.366 127.547 106.765 126.881 107.073 126.126C109.021 121.349 114.99 119.749 119.066 122.912C124.582 127.193 132.51 122.608 131.564 115.69C131.563 115.685 131.563 115.68 131.562 115.676L155.832 177.155ZM68.2174 114.78C68.211 115.08 68.189 115.384 68.1471 115.69C67.2008 122.607 75.1292 127.193 80.6452 122.912C84.7209 119.749 90.6908 121.349 92.6393 126.126C92.9107 126.791 93.2519 127.388 93.6471 127.916L72.3395 186.786C71.715 188.511 69.2913 188.556 68.6041 186.855L62.8883 172.705C62.451 171.623 61.1834 171.143 60.1393 171.665L46.9 178.285C45.2594 179.105 43.4728 177.468 44.1461 175.762L68.2174 114.78ZM92.6393 15.8497C95.2773 9.38359 104.435 9.38359 107.073 15.8497C109.021 20.6269 114.99 22.2266 119.066 19.0636C124.582 14.7826 132.51 19.3685 131.564 26.2862C130.865 31.3981 135.235 35.7725 140.346 35.0724C147.265 34.1247 151.839 42.0602 147.561 47.5802C144.4 51.6591 145.997 57.6323 150.774 59.5841C157.242 62.2263 157.242 71.3853 150.774 74.0274C145.997 75.979 144.401 81.9523 147.561 86.0314C151.839 91.5513 147.265 99.4858 140.346 98.5382C135.235 97.8382 130.866 102.213 131.564 107.324C132.51 114.242 124.582 118.828 119.066 114.547C114.99 111.385 109.021 112.984 107.073 117.761C104.435 124.228 95.2772 124.228 92.6393 117.761C90.6906 112.984 84.7208 111.384 80.6452 114.547C75.1292 118.828 67.2008 114.242 68.1471 107.324C68.8458 102.213 64.4773 97.8382 59.3659 98.5382C52.4472 99.4858 47.8729 91.5513 52.15 86.0314C55.311 81.9523 53.7145 75.979 48.9372 74.0274C42.4702 71.3851 42.4702 62.2264 48.9372 59.5841C53.7144 57.6325 55.3111 51.6593 52.15 47.5802C47.873 42.0602 52.4473 34.1249 59.3659 35.0724C64.4775 35.7724 68.8463 31.3981 68.1471 26.2862C67.2013 19.3687 75.1294 14.7831 80.6452 19.0636C84.721 22.2268 90.6908 20.6269 92.6393 15.8497ZM99.8991 28.6554C78.7961 28.6557 61.6887 45.7764 61.6881 66.8956C61.6881 88.0153 78.7957 105.137 99.8991 105.137C121.003 105.137 138.111 88.0155 138.111 66.8956C138.11 45.7762 121.002 28.6554 99.8991 28.6554ZM99.7946 36.0909C116.734 36.0909 130.466 49.8228 130.466 66.7618C130.466 83.7012 116.734 97.4337 99.7946 97.4337C82.8554 97.4335 69.1237 83.701 69.1237 66.7618C69.1241 49.823 82.8557 36.0912 99.7946 36.0909Z" fill="black"/>
</svg>
