<svg width="200" height="200" viewBox="0 0 200 200" fill="none" xmlns="http://www.w3.org/2000/svg">
<path d="M101.981 111.378C133.17 108.873 124.754 93.8479 150.498 111.378C165.945 124.418 172.584 134.952 181.355 157.601C181.574 158.167 181.75 158.76 181.84 159.36C182.052 160.786 182.056 161.911 181.836 163.511C181.748 164.15 181.583 164.781 181.31 165.366C174.939 179.049 145.641 179.273 101.981 182H98.0202C54.3599 179.273 25.0615 179.049 18.6902 165.366C18.4178 164.781 18.2529 164.15 18.1648 163.511C17.9443 161.911 17.9475 160.786 18.1599 159.36C18.2493 158.76 18.4251 158.167 18.6443 157.601C27.4156 134.952 34.0549 124.418 49.5027 111.378C75.246 93.848 66.8308 108.874 98.0202 111.378H101.981ZM99.9997 17C122.643 17 141 35.3563 141 58C141 80.6437 122.643 99 99.9997 99C77.3561 98.9999 58.9997 80.6436 58.9997 58C58.9997 35.3564 77.3561 17.0001 99.9997 17Z" fill="black"/>
</svg>
