<svg width="200" height="200" viewBox="0 0 200 200" fill="none" xmlns="http://www.w3.org/2000/svg">
<path d="M152.634 140.708C152.634 141.45 152.224 142.13 151.568 142.477L95.6049 172.012C95.6043 172.012 95.6039 172.013 95.6039 172.014V172.014C95.6039 172.015 95.6022 172.016 95.6011 172.015V172.015C95.6004 172.015 95.5996 172.015 95.5989 172.015V172.015C95.5978 172.016 95.5961 172.015 95.5961 172.014V172.014C95.5961 172.013 95.5957 172.012 95.5951 172.012L39.6323 142.477C38.9763 142.13 38.5658 141.45 38.5658 140.708V112.04C38.5658 110.515 40.204 109.551 41.5371 110.292L94.6287 139.786C95.2328 140.122 95.9672 140.122 96.5712 139.786L149.663 110.292C150.996 109.551 152.634 110.515 152.634 112.04V140.708ZM184.85 74.3129C184.85 74.313 184.85 74.3132 184.85 74.3132V74.3132C184.85 74.3132 184.85 74.3133 184.85 74.3134V136.745C184.85 137.849 183.955 138.745 182.85 138.745H171.006C169.902 138.745 169.006 137.849 169.006 136.745V86.5893C169.006 85.0616 167.363 84.098 166.03 84.8439L97.0924 123.415C96.4903 123.752 95.757 123.755 95.1524 123.422L9.03657 76.0848C7.64736 75.3211 7.65637 73.3219 9.0524 72.5708L95.1684 26.2387C95.7646 25.9179 96.4827 25.9206 97.0766 26.2458L184.85 74.3129Z" fill="currentColor"/>
</svg>
